<?xml version="1.0" encoding="UTF-8" standalone="no"?>
<svg
   width="32"
   height="32"
   viewBox="0 0 32 32"
   fill="none"
   version="1.1"
   id="svg4"
   sodipodi:docname="user--primary.svg"
   inkscape:version="1.1 (ce6663b3b7, 2021-05-25)"
   xmlns:inkscape="http://www.inkscape.org/namespaces/inkscape"
   xmlns:sodipodi="http://sodipodi.sourceforge.net/DTD/sodipodi-0.dtd"
   xmlns="http://www.w3.org/2000/svg"
   xmlns:svg="http://www.w3.org/2000/svg">
  <defs
     id="defs8" />
  <sodipodi:namedview
     id="namedview6"
     pagecolor="#ffffff"
     bordercolor="#666666"
     borderopacity="1.0"
     inkscape:pageshadow="2"
     inkscape:pageopacity="0.0"
     inkscape:pagecheckerboard="0"
     showgrid="false"
     inkscape:zoom="1.953125"
     inkscape:cx="15.872"
     inkscape:cy="52.992"
     inkscape:window-width="959"
     inkscape:window-height="713"
     inkscape:window-x="65"
     inkscape:window-y="27"
     inkscape:window-maximized="1"
     inkscape:current-layer="svg4" />
  <path
     d="M28.4444 3.2H21.0133C20.2667 1.344 18.3111 0 16 0C13.6889 0 11.7333 1.344 10.9867 3.2H3.55556C1.6 3.2 0 4.64 0 6.4V28.8C0 30.56 1.6 32 3.55556 32H28.4444C30.4 32 32 30.56 32 28.8V6.4C32 4.64 30.4 3.2 28.4444 3.2ZM16 3.2C16.9778 3.2 17.7778 3.92 17.7778 4.8C17.7778 5.68 16.9778 6.4 16 6.4C15.0222 6.4 14.2222 5.68 14.2222 4.8C14.2222 3.92 15.0222 3.2 16 3.2ZM16 9.6C18.9511 9.6 21.3333 11.744 21.3333 14.4C21.3333 17.056 18.9511 19.2 16 19.2C13.0489 19.2 10.6667 17.056 10.6667 14.4C10.6667 11.744 13.0489 9.6 16 9.6ZM26.6667 28.8H5.33333V26.56C5.33333 23.36 12.4444 21.6 16 21.6C19.5556 21.6 26.6667 23.36 26.6667 26.56V28.8Z"
     fill="white"
     id="path2"
     style="fill:#7c00b6;fill-opacity:1" />
</svg>
